<svg xmlns="http://www.w3.org/2000/svg" xmlns:xlink="http://www.w3.org/1999/xlink" width="200" zoomAndPan="magnify" viewBox="0 0 150 37.5" height="50" preserveAspectRatio="xMidYMid meet" version="1.0"><defs><g/><clipPath id="b9c9a2aac5"><path d="M 35 0 L 114 0 L 114 37.007812 L 35 37.007812 Z M 35 0 " clip-rule="nonzero"/></clipPath><clipPath id="ae5a2f76f5"><path d="M 0.363281 14 L 18 14 L 18 33.835938 L 0.363281 33.835938 Z M 0.363281 14 " clip-rule="nonzero"/></clipPath><clipPath id="c59292dc12"><path d="M 1 9 L 23 9 L 23 33.835938 L 1 33.835938 Z M 1 9 " clip-rule="nonzero"/></clipPath><clipPath id="d27f15fa1b"><path d="M 8 3.15625 L 30 3.15625 L 30 28 L 8 28 Z M 8 3.15625 " clip-rule="nonzero"/></clipPath><clipPath id="a7a76284c4"><path d="M 14 3.15625 L 31 3.15625 L 31 22 L 14 22 Z M 14 3.15625 " clip-rule="nonzero"/></clipPath><clipPath id="d3db45319d"><path d="M 36 0 L 78.488281 0 L 78.488281 37.007812 L 36 37.007812 Z M 36 0 " clip-rule="nonzero"/></clipPath><clipPath id="232817ab08"><rect x="0" width="43" y="0" height="38"/></clipPath><clipPath id="8a360350d2"><rect x="0" width="79" y="0" height="38"/></clipPath></defs><g clip-path="url(#b9c9a2aac5)"><g transform="matrix(1, 0, 0, 1, 35, -0.000000000000001478)"><g clip-path="url(#8a360350d2)"><g clip-path="url(#ae5a2f76f5)"><path fill="#000000" d="M 0.371094 17.183594 L 2.320312 19.4375 C 2.320312 19.441406 2.320312 19.441406 2.320312 19.441406 L 12.78125 31.53125 L 14.734375 33.785156 C 15.601562 33.835938 16.457031 33.8125 17.292969 33.722656 L 15.660156 31.835938 L 15.660156 31.832031 L 2.433594 16.546875 C 2.421875 16.621094 2.414062 16.691406 2.402344 16.765625 C 2.414062 16.691406 2.421875 16.617188 2.433594 16.546875 L 0.800781 14.660156 C 0.589844 15.472656 0.445312 16.316406 0.371094 17.183594 Z M 0.371094 17.183594 " fill-opacity="1" fill-rule="nonzero"/></g><g clip-path="url(#c59292dc12)"><path fill="#000000" d="M 1.917969 11.671875 L 3.335938 13.3125 L 18.992188 31.40625 L 20.410156 33.046875 C 21.074219 32.828125 21.722656 32.5625 22.34375 32.257812 L 21 30.703125 L 4.320312 11.425781 L 2.972656 9.871094 C 2.582031 10.445312 2.230469 11.042969 1.917969 11.671875 Z M 1.917969 11.671875 " fill-opacity="1" fill-rule="nonzero"/></g><path fill="#000000" d="M 5.035156 7.441406 L 6.332031 8.941406 L 23.75 29.070312 L 25.046875 30.566406 C 25.566406 30.160156 26.058594 29.722656 26.523438 29.253906 L 25.222656 27.75 C 25.222656 27.75 25.222656 27.753906 25.222656 27.753906 L 25.222656 27.75 L 7.847656 7.671875 L 6.550781 6.171875 C 6.019531 6.5625 5.511719 6.984375 5.035156 7.441406 Z M 5.035156 7.441406 " fill-opacity="1" fill-rule="nonzero"/><g clip-path="url(#d27f15fa1b)"><path fill="#000000" d="M 8.984375 4.703125 L 10.332031 6.261719 L 26.972656 25.496094 L 28.320312 27.054688 C 28.710938 26.480469 29.0625 25.875 29.371094 25.246094 L 27.945312 23.597656 L 12.351562 5.574219 C 12.347656 5.574219 12.347656 5.574219 12.347656 5.574219 L 10.925781 3.925781 C 10.257812 4.140625 9.609375 4.402344 8.984375 4.703125 Z M 8.984375 4.703125 " fill-opacity="1" fill-rule="nonzero"/></g><g clip-path="url(#a7a76284c4)"><path fill="#000000" d="M 14.332031 3.246094 L 16 5.175781 L 28.863281 20.042969 C 28.863281 20.042969 28.867188 20.039062 28.867188 20.039062 L 28.867188 20.042969 L 30.535156 21.972656 C 30.710938 21.203125 30.832031 20.414062 30.890625 19.605469 C 30.898438 19.53125 30.902344 19.453125 30.90625 19.378906 L 28.875 17.03125 L 28.875 17.035156 L 18.980469 5.597656 L 16.949219 3.25 C 16.875 3.242188 16.800781 3.238281 16.726562 3.230469 C 15.914062 3.171875 15.117188 3.179688 14.332031 3.246094 Z M 14.332031 3.246094 " fill-opacity="1" fill-rule="nonzero"/></g><g clip-path="url(#d3db45319d)"><g transform="matrix(1, 0, 0, 1, 36, -0.000000000000001478)"><g clip-path="url(#232817ab08)"><g fill="#000000" fill-opacity="1"><g transform="translate(0.171611, 32.487326)"><g><path d="M 26.269531 -28.554688 L 2.449219 -28.554688 L 2.449219 -28.269531 C 5.140625 -27.167969 5.914062 -26.3125 5.914062 -24.800781 L 5.914062 -3.753906 C 5.914062 -2.242188 5.140625 -1.386719 2.449219 -0.285156 L 2.449219 0 L 15.296875 0 L 15.296875 -0.285156 C 11.421875 -1.589844 10.363281 -2.242188 10.363281 -3.875 L 10.363281 -13.992188 L 13.664062 -13.992188 C 17.378906 -13.992188 18.847656 -11.953125 19.742188 -7.300781 L 20.03125 -7.300781 L 20.03125 -22.191406 L 19.742188 -22.191406 C 18.847656 -17.582031 17.378906 -15.582031 13.664062 -15.582031 L 10.363281 -15.582031 L 10.363281 -26.882812 L 16.113281 -26.882812 C 22.027344 -26.882812 25.089844 -24.3125 25.984375 -19.089844 L 26.269531 -19.089844 Z M 26.269531 -28.554688 "/></g></g></g><g fill="#000000" fill-opacity="1"><g transform="translate(27.256754, 32.487326)"><g><path d="M 7.546875 -23.046875 C 9.054688 -23.046875 10.28125 -24.273438 10.28125 -25.78125 C 10.28125 -27.289062 9.054688 -28.515625 7.546875 -28.515625 C 6.039062 -28.515625 4.8125 -27.289062 4.8125 -25.78125 C 4.8125 -24.273438 6.039062 -23.046875 7.546875 -23.046875 Z M 13.175781 0 L 13.175781 -0.328125 C 10.605469 -1.507812 9.914062 -2.203125 9.914062 -3.589844 L 9.914062 -20.4375 L 2.40625 -20.4375 L 2.40625 -20.152344 C 4.976562 -18.96875 5.628906 -18.277344 5.628906 -16.683594 L 5.628906 -3.589844 C 5.628906 -2.203125 4.976562 -1.507812 2.40625 -0.328125 L 2.40625 0 Z M 13.175781 0 "/></g></g></g></g></g></g></g></g></g></svg>