<svg xmlns="http://www.w3.org/2000/svg" xmlns:xlink="http://www.w3.org/1999/xlink" width="200" zoomAndPan="magnify" viewBox="0 0 150 37.5" height="50" preserveAspectRatio="xMidYMid meet" version="1.0"><defs><g/><clipPath id="429a7476ab"><path d="M 32 0 L 116 0 L 116 37.007812 L 32 37.007812 Z M 32 0 " clip-rule="nonzero"/></clipPath><clipPath id="0b89c27de7"><path d="M 0.925781 14 L 19 14 L 19 34.777344 L 0.925781 34.777344 Z M 0.925781 14 " clip-rule="nonzero"/></clipPath><clipPath id="62bbb488e4"><path d="M 15 2.214844 L 33.488281 2.214844 L 33.488281 23 L 15 23 Z M 15 2.214844 " clip-rule="nonzero"/></clipPath><clipPath id="2098741115"><path d="M 38 0 L 83.855469 0 L 83.855469 37.007812 L 38 37.007812 Z M 38 0 " clip-rule="nonzero"/></clipPath><clipPath id="15a8d51e7d"><rect x="0" width="46" y="0" height="38"/></clipPath><clipPath id="a367e50670"><rect x="0" width="84" y="0" height="38"/></clipPath></defs><g clip-path="url(#429a7476ab)"><g transform="matrix(1, 0, 0, 1, 32, -0.000000000000001478)"><g clip-path="url(#a367e50670)"><g clip-path="url(#0b89c27de7)"><path fill="#000000" d="M 0.929688 17.101562 L 3 19.496094 C 3 19.496094 3 19.496094 3 19.5 L 14.105469 32.332031 L 16.179688 34.726562 C 17.097656 34.777344 18.007812 34.753906 18.894531 34.660156 L 17.160156 32.65625 L 3.121094 16.425781 C 3.109375 16.503906 3.097656 16.582031 3.089844 16.65625 C 3.097656 16.578125 3.109375 16.503906 3.121094 16.425781 L 1.386719 14.421875 C 1.164062 15.289062 1.007812 16.183594 0.929688 17.101562 Z M 0.929688 17.101562 " fill-opacity="1" fill-rule="nonzero"/></g><path fill="#000000" d="M 2.570312 11.25 L 4.078125 12.992188 L 20.695312 32.199219 L 22.203125 33.941406 C 22.910156 33.710938 23.59375 33.429688 24.257812 33.105469 L 22.828125 31.457031 L 5.121094 10.992188 L 3.695312 9.339844 C 3.277344 9.949219 2.902344 10.585938 2.570312 11.25 Z M 2.570312 11.25 " fill-opacity="1" fill-rule="nonzero"/><path fill="#000000" d="M 5.882812 6.761719 L 7.257812 8.351562 L 25.75 29.71875 L 27.125 31.308594 C 27.675781 30.878906 28.199219 30.414062 28.691406 29.914062 L 27.3125 28.320312 L 8.867188 7.003906 L 7.488281 5.410156 C 6.925781 5.824219 6.390625 6.277344 5.882812 6.761719 Z M 5.882812 6.761719 " fill-opacity="1" fill-rule="nonzero"/><path fill="#000000" d="M 10.074219 3.855469 L 11.503906 5.507812 L 29.171875 25.929688 L 30.601562 27.582031 C 31.015625 26.96875 31.386719 26.328125 31.714844 25.660156 L 30.203125 23.910156 L 13.648438 4.777344 L 12.132812 3.03125 C 11.425781 3.257812 10.738281 3.535156 10.074219 3.855469 Z M 10.074219 3.855469 " fill-opacity="1" fill-rule="nonzero"/><g clip-path="url(#62bbb488e4)"><path fill="#000000" d="M 15.75 2.304688 L 17.523438 4.355469 L 31.179688 20.136719 L 32.953125 22.1875 C 33.140625 21.371094 33.269531 20.53125 33.332031 19.671875 C 33.335938 19.59375 33.339844 19.511719 33.347656 19.433594 L 31.191406 16.941406 L 20.6875 4.800781 L 18.53125 2.3125 C 18.453125 2.304688 18.371094 2.296875 18.292969 2.292969 C 17.433594 2.230469 16.582031 2.234375 15.75 2.304688 Z M 15.75 2.304688 " fill-opacity="1" fill-rule="nonzero"/></g><g clip-path="url(#2098741115)"><g transform="matrix(1, 0, 0, 1, 38, -0.000000000000001478)"><g clip-path="url(#15a8d51e7d)"><g fill="#000000" fill-opacity="1"><g transform="translate(0.935867, 33.348424)"><g><path d="M 27.886719 -30.3125 L 2.597656 -30.3125 L 2.597656 -30.011719 C 5.457031 -28.839844 6.277344 -27.933594 6.277344 -26.328125 L 6.277344 -3.984375 C 6.277344 -2.382812 5.457031 -1.472656 2.597656 -0.304688 L 2.597656 0 L 16.238281 0 L 16.238281 -0.304688 C 12.125 -1.6875 11 -2.382812 11 -4.113281 L 11 -14.855469 L 14.507812 -14.855469 C 18.449219 -14.855469 20.007812 -12.6875 20.960938 -7.75 L 21.261719 -7.75 L 21.261719 -23.558594 L 20.960938 -23.558594 C 20.007812 -18.664062 18.449219 -16.542969 14.507812 -16.542969 L 11 -16.542969 L 11 -28.539062 L 17.105469 -28.539062 C 23.386719 -28.539062 26.632812 -25.808594 27.585938 -20.265625 L 27.886719 -20.265625 Z M 27.886719 -30.3125 "/></g></g></g><g fill="#000000" fill-opacity="1"><g transform="translate(29.688837, 33.348424)"><g><path d="M 8.011719 -24.46875 C 9.613281 -24.46875 10.914062 -25.765625 10.914062 -27.367188 C 10.914062 -28.972656 9.613281 -30.269531 8.011719 -30.269531 C 6.410156 -30.269531 5.109375 -28.972656 5.109375 -27.367188 C 5.109375 -25.765625 6.410156 -24.46875 8.011719 -24.46875 Z M 13.988281 0 L 13.988281 -0.347656 C 11.257812 -1.601562 10.523438 -2.339844 10.523438 -3.8125 L 10.523438 -21.695312 L 2.554688 -21.695312 L 2.554688 -21.394531 C 5.285156 -20.136719 5.976562 -19.402344 5.976562 -17.710938 L 5.976562 -3.8125 C 5.976562 -2.339844 5.285156 -1.601562 2.554688 -0.347656 L 2.554688 0 Z M 13.988281 0 "/></g></g></g></g></g></g></g></g></g></svg>
