<svg xmlns="http://www.w3.org/2000/svg" xmlns:xlink="http://www.w3.org/1999/xlink" width="40" zoomAndPan="magnify" viewBox="0 0 30 30.000001" height="40" preserveAspectRatio="xMidYMid meet" version="1.0"><defs><clipPath id="47e47e3dae"><path d="M 0.773438 3 L 29.078125 3 L 29.078125 26 L 0.773438 26 Z M 0.773438 3 " clip-rule="nonzero"/></clipPath></defs><g clip-path="url(#47e47e3dae)"><path fill="#000000" d="M 5.21875 9.089844 L 4.660156 11.359375 L 1.777344 11.359375 C 1.648438 11.363281 1.519531 11.386719 1.398438 11.4375 C 1.277344 11.492188 1.171875 11.5625 1.078125 11.65625 C 0.984375 11.75 0.914062 11.859375 0.863281 11.980469 C 0.816406 12.101562 0.789062 12.230469 0.789062 12.363281 C 0.789062 12.496094 0.816406 12.621094 0.863281 12.746094 C 0.914062 12.867188 0.984375 12.972656 1.078125 13.066406 C 1.171875 13.164062 1.277344 13.234375 1.398438 13.285156 C 1.519531 13.335938 1.648438 13.363281 1.777344 13.363281 L 28.109375 13.363281 C 28.242188 13.363281 28.367188 13.335938 28.488281 13.285156 C 28.609375 13.234375 28.71875 13.164062 28.808594 13.066406 C 28.902344 12.972656 28.972656 12.867188 29.023438 12.746094 C 29.074219 12.621094 29.097656 12.496094 29.097656 12.363281 C 29.097656 12.230469 29.074219 12.101562 29.023438 11.980469 C 28.972656 11.859375 28.902344 11.75 28.808594 11.65625 C 28.71875 11.5625 28.609375 11.492188 28.488281 11.4375 C 28.367188 11.386719 28.242188 11.363281 28.109375 11.359375 L 25.230469 11.359375 L 24.671875 9.089844 C 23.945312 6.167969 23.589844 4.71875 22.515625 3.867188 C 21.445312 3.023438 19.972656 3.023438 17.003906 3.023438 L 12.882812 3.023438 C 9.917969 3.023438 8.445312 3.023438 7.371094 3.867188 C 6.300781 4.71875 5.941406 6.167969 5.21875 9.089844 Z M 7.710938 25.710938 C 8.21875 25.707031 8.714844 25.625 9.195312 25.457031 C 9.679688 25.289062 10.121094 25.050781 10.523438 24.734375 C 10.925781 24.421875 11.265625 24.050781 11.546875 23.621094 C 11.828125 23.191406 12.03125 22.730469 12.15625 22.234375 L 13.621094 21.488281 C 14.035156 21.28125 14.480469 21.175781 14.945312 21.175781 C 15.410156 21.175781 15.851562 21.28125 16.269531 21.488281 L 17.730469 22.234375 C 17.828125 22.601562 17.964844 22.949219 18.144531 23.28125 C 18.328125 23.613281 18.542969 23.921875 18.796875 24.199219 C 19.050781 24.480469 19.335938 24.722656 19.648438 24.933594 C 19.960938 25.144531 20.296875 25.3125 20.648438 25.441406 C 21.003906 25.570312 21.367188 25.65625 21.742188 25.695312 C 22.117188 25.734375 22.492188 25.730469 22.863281 25.679688 C 23.238281 25.628906 23.601562 25.53125 23.949219 25.390625 C 24.300781 25.253906 24.628906 25.074219 24.933594 24.855469 C 25.242188 24.632812 25.519531 24.378906 25.765625 24.09375 C 26.007812 23.804688 26.21875 23.496094 26.386719 23.15625 C 26.558594 22.820312 26.683594 22.464844 26.769531 22.097656 C 26.855469 21.726562 26.894531 21.355469 26.890625 20.976562 C 26.882812 20.597656 26.835938 20.222656 26.738281 19.859375 C 26.644531 19.492188 26.507812 19.140625 26.328125 18.808594 C 26.148438 18.476562 25.929688 18.171875 25.675781 17.890625 C 25.425781 17.609375 25.140625 17.363281 24.828125 17.152344 C 24.515625 16.941406 24.183594 16.773438 23.828125 16.644531 C 23.472656 16.511719 23.109375 16.429688 22.734375 16.386719 C 22.359375 16.347656 21.988281 16.351562 21.613281 16.402344 C 21.242188 16.453125 20.878906 16.546875 20.527344 16.6875 C 20.175781 16.824219 19.847656 17.003906 19.542969 17.222656 C 19.234375 17.441406 18.957031 17.695312 18.710938 17.980469 C 18.464844 18.265625 18.257812 18.578125 18.085938 18.914062 C 17.914062 19.253906 17.785156 19.605469 17.699219 19.976562 L 17.152344 19.699219 C 16.457031 19.347656 15.722656 19.167969 14.945312 19.167969 C 14.167969 19.167969 13.429688 19.347656 12.734375 19.699219 L 12.1875 19.976562 C 12.050781 19.40625 11.816406 18.886719 11.484375 18.410156 C 11.152344 17.929688 10.742188 17.53125 10.257812 17.207031 C 9.777344 16.886719 9.25 16.664062 8.683594 16.539062 C 8.117188 16.417969 7.546875 16.402344 6.972656 16.492188 C 6.402344 16.585938 5.863281 16.78125 5.363281 17.078125 C 4.863281 17.371094 4.4375 17.75 4.078125 18.207031 C 3.71875 18.667969 3.457031 19.175781 3.289062 19.734375 C 3.121094 20.292969 3.0625 20.863281 3.109375 21.445312 C 3.152344 22.023438 3.304688 22.578125 3.558594 23.101562 C 3.8125 23.625 4.152344 24.085938 4.578125 24.480469 C 5.003906 24.878906 5.488281 25.179688 6.027344 25.394531 C 6.570312 25.605469 7.128906 25.710938 7.710938 25.710938 Z M 7.710938 25.710938 " fill-opacity="1" fill-rule="evenodd"/></g></svg>