<svg xmlns="http://www.w3.org/2000/svg" xmlns:xlink="http://www.w3.org/1999/xlink" width="40" zoomAndPan="magnify" viewBox="0 0 30 30.000001" height="40" preserveAspectRatio="xMidYMid meet" version="1.0"><defs><clipPath id="18603d8f1c"><path d="M 0.773438 3 L 29.078125 3 L 29.078125 26 L 0.773438 26 Z M 0.773438 3 " clip-rule="nonzero"/></clipPath></defs><g clip-path="url(#18603d8f1c)"><path fill="#fcfcfc" d="M 5.242188 9.089844 L 4.679688 11.359375 L 1.785156 11.359375 C 1.652344 11.363281 1.523438 11.386719 1.402344 11.4375 C 1.28125 11.492188 1.171875 11.5625 1.082031 11.65625 C 0.988281 11.75 0.914062 11.859375 0.867188 11.980469 C 0.816406 12.101562 0.789062 12.230469 0.789062 12.363281 C 0.789062 12.496094 0.816406 12.621094 0.867188 12.746094 C 0.914062 12.867188 0.988281 12.972656 1.082031 13.066406 C 1.171875 13.164062 1.28125 13.234375 1.402344 13.285156 C 1.523438 13.335938 1.652344 13.363281 1.785156 13.363281 L 28.253906 13.363281 C 28.386719 13.363281 28.511719 13.335938 28.632812 13.285156 C 28.757812 13.234375 28.863281 13.164062 28.957031 13.066406 C 29.050781 12.972656 29.121094 12.867188 29.171875 12.746094 C 29.222656 12.621094 29.246094 12.496094 29.246094 12.363281 C 29.246094 12.230469 29.222656 12.101562 29.171875 11.980469 C 29.121094 11.859375 29.050781 11.75 28.957031 11.65625 C 28.863281 11.5625 28.757812 11.492188 28.632812 11.4375 C 28.511719 11.386719 28.386719 11.363281 28.253906 11.359375 L 25.355469 11.359375 L 24.796875 9.089844 C 24.066406 6.167969 23.707031 4.71875 22.628906 3.867188 C 21.550781 3.023438 20.070312 3.023438 17.089844 3.023438 L 12.945312 3.023438 C 9.964844 3.023438 8.484375 3.023438 7.40625 3.867188 C 6.328125 4.71875 5.96875 6.167969 5.242188 9.089844 Z M 7.746094 25.710938 C 8.257812 25.707031 8.757812 25.625 9.242188 25.457031 C 9.726562 25.289062 10.167969 25.050781 10.574219 24.734375 C 10.976562 24.421875 11.320312 24.050781 11.601562 23.621094 C 11.882812 23.191406 12.089844 22.730469 12.21875 22.234375 L 13.6875 21.488281 C 14.105469 21.28125 14.550781 21.175781 15.019531 21.175781 C 15.488281 21.175781 15.929688 21.28125 16.351562 21.488281 L 17.820312 22.234375 C 17.917969 22.601562 18.054688 22.949219 18.238281 23.28125 C 18.417969 23.613281 18.636719 23.921875 18.890625 24.199219 C 19.148438 24.480469 19.433594 24.722656 19.746094 24.933594 C 20.0625 25.144531 20.398438 25.3125 20.753906 25.441406 C 21.109375 25.570312 21.476562 25.65625 21.851562 25.695312 C 22.230469 25.734375 22.605469 25.730469 22.980469 25.679688 C 23.355469 25.628906 23.71875 25.53125 24.070312 25.390625 C 24.421875 25.253906 24.753906 25.074219 25.0625 24.855469 C 25.371094 24.632812 25.648438 24.378906 25.894531 24.09375 C 26.140625 23.804688 26.351562 23.496094 26.519531 23.15625 C 26.691406 22.820312 26.820312 22.464844 26.90625 22.097656 C 26.992188 21.726562 27.03125 21.355469 27.027344 20.976562 C 27.019531 20.597656 26.96875 20.222656 26.875 19.859375 C 26.777344 19.492188 26.640625 19.140625 26.460938 18.808594 C 26.28125 18.476562 26.0625 18.171875 25.808594 17.890625 C 25.550781 17.609375 25.269531 17.363281 24.953125 17.152344 C 24.640625 16.941406 24.304688 16.773438 23.949219 16.644531 C 23.59375 16.511719 23.226562 16.429688 22.851562 16.386719 C 22.472656 16.347656 22.097656 16.351562 21.722656 16.402344 C 21.347656 16.453125 20.984375 16.546875 20.632812 16.6875 C 20.277344 16.824219 19.949219 17.003906 19.640625 17.222656 C 19.332031 17.441406 19.050781 17.695312 18.804688 17.980469 C 18.558594 18.265625 18.347656 18.578125 18.175781 18.914062 C 18.003906 19.253906 17.875 19.605469 17.789062 19.976562 L 17.238281 19.699219 C 16.539062 19.347656 15.800781 19.167969 15.019531 19.167969 C 14.238281 19.167969 13.496094 19.347656 12.796875 19.699219 L 12.25 19.976562 C 12.109375 19.40625 11.875 18.886719 11.539062 18.410156 C 11.203125 17.929688 10.792969 17.53125 10.308594 17.207031 C 9.824219 16.886719 9.292969 16.664062 8.726562 16.539062 C 8.15625 16.417969 7.582031 16.402344 7.007812 16.492188 C 6.429688 16.585938 5.890625 16.78125 5.390625 17.078125 C 4.886719 17.371094 4.453125 17.75 4.09375 18.207031 C 3.734375 18.667969 3.46875 19.175781 3.300781 19.734375 C 3.132812 20.292969 3.074219 20.863281 3.121094 21.445312 C 3.167969 22.023438 3.316406 22.578125 3.574219 23.101562 C 3.828125 23.625 4.167969 24.085938 4.597656 24.480469 C 5.027344 24.878906 5.511719 25.179688 6.054688 25.394531 C 6.597656 25.605469 7.164062 25.710938 7.746094 25.710938 Z M 7.746094 25.710938 " fill-opacity="1" fill-rule="evenodd"/></g></svg>