<svg xmlns="http://www.w3.org/2000/svg" xmlns:xlink="http://www.w3.org/1999/xlink" width="40" zoomAndPan="magnify" viewBox="0 0 30 30.000001" height="40" preserveAspectRatio="xMidYMid meet" version="1.0"><defs><filter x="0%" y="0%" width="100%" height="100%" id="02038f8247"><feColorMatrix values="0 0 0 0 1 0 0 0 0 1 0 0 0 0 1 0 0 0 1 0" color-interpolation-filters="sRGB"/></filter><mask id="a357b62262"><g filter="url(#02038f8247)"><rect x="-3" width="36" fill="#000000" y="-3" height="36.000001" fill-opacity="0.9"/></g></mask><clipPath id="827cd27060"><path d="M 0.601562 0.480469 L 15.121094 0.480469 L 15.121094 12.816406 L 0.601562 12.816406 Z M 0.601562 0.480469 " clip-rule="nonzero"/></clipPath><clipPath id="c9cd243262"><rect x="0" width="17" y="0" height="13"/></clipPath></defs><g mask="url(#a357b62262)"><g transform="matrix(1, 0, 0, 1, 7, 8)"><g clip-path="url(#c9cd243262)"><g clip-path="url(#827cd27060)"><path fill="#000000" d="M 2.882812 3.765625 L 2.597656 4.972656 L 1.117188 4.972656 C 0.980469 4.972656 0.859375 5.023438 0.761719 5.128906 C 0.660156 5.230469 0.613281 5.355469 0.613281 5.503906 C 0.613281 5.648438 0.660156 5.773438 0.761719 5.878906 C 0.859375 5.980469 0.980469 6.035156 1.117188 6.035156 L 14.621094 6.035156 C 14.761719 6.035156 14.882812 5.980469 14.980469 5.878906 C 15.082031 5.773438 15.128906 5.648438 15.128906 5.503906 C 15.128906 5.355469 15.082031 5.230469 14.980469 5.128906 C 14.882812 5.023438 14.761719 4.972656 14.621094 4.972656 L 13.144531 4.972656 L 12.859375 3.765625 C 12.488281 2.210938 12.304688 1.441406 11.753906 0.988281 C 11.203125 0.539062 10.449219 0.539062 8.929688 0.539062 L 6.8125 0.539062 C 5.292969 0.539062 4.539062 0.539062 3.988281 0.988281 C 3.4375 1.441406 3.253906 2.210938 2.882812 3.765625 Z M 4.160156 12.597656 C 4.421875 12.597656 4.675781 12.550781 4.921875 12.460938 C 5.171875 12.375 5.398438 12.246094 5.601562 12.078125 C 5.808594 11.910156 5.984375 11.714844 6.128906 11.488281 C 6.273438 11.257812 6.375 11.011719 6.441406 10.75 L 7.191406 10.351562 C 7.644531 10.121094 8.097656 10.121094 8.550781 10.351562 L 9.300781 10.75 C 9.347656 10.945312 9.421875 11.128906 9.511719 11.308594 C 9.605469 11.484375 9.714844 11.644531 9.847656 11.792969 C 9.976562 11.941406 10.121094 12.074219 10.285156 12.183594 C 10.445312 12.296875 10.613281 12.386719 10.796875 12.453125 C 10.976562 12.523438 11.164062 12.566406 11.355469 12.589844 C 11.550781 12.609375 11.742188 12.609375 11.933594 12.582031 C 12.125 12.554688 12.308594 12.503906 12.488281 12.429688 C 12.667969 12.355469 12.835938 12.257812 12.996094 12.140625 C 13.152344 12.023438 13.292969 11.890625 13.417969 11.738281 C 13.546875 11.585938 13.652344 11.417969 13.738281 11.238281 C 13.828125 11.058594 13.890625 10.871094 13.933594 10.675781 C 13.980469 10.480469 14 10.28125 13.996094 10.082031 C 13.992188 9.878906 13.96875 9.679688 13.917969 9.488281 C 13.871094 9.292969 13.800781 9.105469 13.707031 8.929688 C 13.617188 8.753906 13.503906 8.589844 13.375 8.441406 C 13.246094 8.292969 13.097656 8.160156 12.9375 8.050781 C 12.777344 7.9375 12.609375 7.847656 12.425781 7.777344 C 12.246094 7.710938 12.058594 7.664062 11.867188 7.640625 C 11.675781 7.621094 11.480469 7.625 11.289062 7.648438 C 11.097656 7.675781 10.914062 7.726562 10.734375 7.800781 C 10.554688 7.875 10.386719 7.96875 10.226562 8.085938 C 10.070312 8.203125 9.929688 8.335938 9.800781 8.488281 C 9.675781 8.640625 9.570312 8.808594 9.480469 8.984375 C 9.394531 9.164062 9.328125 9.351562 9.285156 9.550781 L 9.003906 9.402344 C 8.648438 9.214844 8.269531 9.121094 7.871094 9.121094 C 7.472656 9.121094 7.09375 9.214844 6.738281 9.402344 L 6.457031 9.550781 C 6.386719 9.246094 6.265625 8.96875 6.097656 8.714844 C 5.925781 8.464844 5.714844 8.25 5.46875 8.078125 C 5.21875 7.90625 4.949219 7.789062 4.660156 7.722656 C 4.371094 7.65625 4.078125 7.648438 3.785156 7.699219 C 3.488281 7.746094 3.214844 7.851562 2.957031 8.007812 C 2.703125 8.164062 2.480469 8.367188 2.296875 8.609375 C 2.113281 8.855469 1.980469 9.125 1.894531 9.421875 C 1.808594 9.71875 1.777344 10.019531 1.800781 10.328125 C 1.824219 10.636719 1.902344 10.933594 2.03125 11.210938 C 2.160156 11.488281 2.335938 11.734375 2.554688 11.945312 C 2.773438 12.152344 3.019531 12.316406 3.296875 12.429688 C 3.574219 12.542969 3.863281 12.597656 4.160156 12.597656 Z M 4.160156 12.597656 " fill-opacity="1" fill-rule="evenodd"/></g></g></g></g></svg>